{"title":"The Midnight Disease (2010) WEBRip","uid":8381310,"size":940060943,"categoryP":"video","categoryS":"movies","magnet":"?xt=urn:btih:a998aef2523c047632d929690eaf326e8a21e5bb&amp;dn=The+Midnight+Disease+%282010%29+WEBRip&amp;tr=udp%3A%2F%2Ftracker.openbittorrent.com%3A80&amp;tr=udp%3A%2F%2Fopen.demonii.com%3A1337&amp;tr=udp%3A%2F%2Ftracker.coppersurfer.tk%3A6969&amp;tr=udp%3A%2F%2Fexodus.desync.com%3A6969","seeders":1,"leechers":0,"uploader":"RadioResearch","files":3,"time":1366174448,"description":"*******************************************************************************\n                      The Midnight Disease (2010) WEBRip\n*******************************************************************************\n\n-------------------------------------------------------------------------------\n                              General Information\n-------------------------------------------------------------------------------\nType.................: Movie\n\n\n\nVideo Format.........: AVI\nVideo Bitrate........: 1357\nResolution...........: 640 x 360\nColor................: 8 bit\nFPS..................: 24.000\nSource...............: WEB 16:9\nOriginal Format......: NTSC\nGenre................: Horror\nIMDb Rating..........: 2.6\nMovie Information....: http://www.imdb.com/title/tt1356405/\n\n-------------------------------------------------------------------------------\n                               Post Information\n-------------------------------------------------------------------------------\nPosted by............: RadioResearch\nPosted on............: 4/17/2013\n\n-------------------------------------------------------------------------------\n                                 Release Notes\n-------------------------------------------------------------------------------\nSEEDBOX SUPPORTED!!\n\nJust when novelist Jack Jones is about to give up his career as a novelist due \nto his increasing writer's block, a mysterious jar of blood appears on his \ndoorstep. The events that unfold not only get his creative juices flowing, but \nleave a trail of blood in Jack's wake. \n\nEnjoy!\n\nRadioResearch\n\nGeneral\nComplete name                            : G:The Midnight Disease (2010) \nWEBRipThe Midnight Disease.avi\nFormat                                   : AVI\nFormat/Info                              : Audio Video Interleave\nFile size                                : 897 MiB\nDuration                                 : 1h 32mn\nOverall bit rate                         : 1 357 Kbps\n\nVideo\nID                                       : 0\nFormat                                   : MPEG-4 Visual\nFormat profile                           : Simple@L3\nFormat settings, BVOP                    : No\nFormat settings, QPel                    : No\nFormat settings, GMC                     : No warppoints\nFormat settings, Matrix                  : Default (H.263)\nCodec ID                                 : XVID\nCodec ID/Hint                            : XviD\nDuration                                 : 1h 32mn\nBit rate                                 : 1 217 Kbps\nWidth                                    : 640 pixels\nHeight                                   : 360 pixels\nDisplay aspect ratio                     : 16:9\nFrame rate                               : 24.000 fps\nColor space                              : YUV\nChroma subsampling                       : 4:2:0\nBit depth                                : 8 bits\nScan type                                : Progressive\nCompression mode                         : Lossy\nBits/(Pixel*Frame)                       : 0.220\nStream size                              : 804 MiB (90%)\nWriting library                          : XviD 1.2.1 (UTC 2008-12-04)\n\nAudio\nID                                       : 1\nFormat                                   : MPEG Audio\nFormat version                           : Version 1\nFormat profile                           : Layer 3\nMode                                     : Joint stereo\nCodec ID                                 : 55\nCodec ID/Hint                            : MP3\nDuration                                 : 1h 32mn\nBit rate mode                            : Constant\nBit rate                                 : 128 Kbps\nChannel(s)                               : 2 channels\nSampling rate                            : 44.1 KHz\nCompression mode                         : Lossy\nStream size                              : 84.6 MiB (9%)\nAlignment                                : Aligned on interleaves\nInterleave, duration                     : 26 ms (0.63 video frame)\nWriting library                          : LAME3.98.2\n\n\n\n\n-------------------------------------------------------------------------------\nGenerated with Cool NFO Creator - http://fly.to/coolbeans\n-------------------------------------------------------------------------------\n","torrent":{"xt":"urn:btih:a998aef2523c047632d929690eaf326e8a21e5bb","amp;dn":"The+Midnight+Disease+%282010%29+WEBRip","amp;tr":["udp%3A%2F%2Ftracker.openbittorrent.com%3A80","udp%3A%2F%2Fopen.demonii.com%3A1337","udp%3A%2F%2Ftracker.coppersurfer.tk%3A6969","udp%3A%2F%2Fexodus.desync.com%3A6969"],"infoHash":"a998aef2523c047632d929690eaf326e8a21e5bb","infoHashBuffer":{"type":"Buffer","data":[169,152,174,242,82,60,4,118,50,217,41,105,14,175,50,110,138,33,229,187]},"announce":[],"urlList":[]}}